Coordinates
version=1
nRows=5
nColumns=63
inDegrees=yes

Units are S.I. units (second, meters, Newtons, ...)
If the header above contains a line with 'inDegrees', this indicates whether rotational values are in degrees (yes) or radians (no).

endheader
time	pelvis_tilt	pelvis_list	pelvis_rotation	pelvis_tx	pelvis_ty	pelvis_tz	hip_flexion_r	hip_adduction_r	hip_rotation_r	knee_angle_r	knee_angle_r_beta	ankle_angle_r	subtalar_angle_r	mtp_angle_r	hip_flexion_l	hip_adduction_l	hip_rotation_l	knee_angle_l	knee_angle_l_beta	ankle_angle_l	subtalar_angle_l	mtp_angle_l	L5_S1_Flex_Ext	L5_S1_Lat_Bending	L5_S1_axial_rotation	L4_L5_Flex_Ext	L4_L5_Lat_Bending	L4_L5_axial_rotation	L3_L4_Flex_Ext	L3_L4_Lat_Bending	L3_L4_axial_rotation	L2_L3_Flex_Ext	L2_L3_Lat_Bending	L2_L3_axial_rotation	L1_L2_Flex_Ext	L1_L2_Lat_Bending	L1_L2_axial_rotation	L1_T12_Flex_Ext	L1_T12_Lat_Bending	L1_T12_axial_rotation	Abs_r3	Abs_r2	Abs_r1	Abs_t1	Abs_t2	neck_flexion	neck_bending	neck_rotation	arm_flex_r	arm_add_r	arm_rot_r	elbow_flex_r	pro_sup_r	wrist_flex_r	wrist_dev_r	arm_flex_l	arm_add_l	arm_rot_l	elbow_flex_l	pro_sup_l	wrist_flex_l	wrist_dev_l
      1.26666667	    -14.70904511	     16.43876049	    -63.52231941	     -0.03831643	      0.94219398	     -0.80892629	     37.80996145	      5.03531151	    -31.10321946	     17.27681656	      0.30153733	    -14.73780965	    -15.33648644	      0.00000000	     22.63872174	     -6.28391801	     15.85185835	     35.30167039	      0.61613038	     14.07178545	    -14.15794918	      0.00000000	     -0.02823154	     -0.97360944	     -1.23249483	     -0.05242880	     -1.29490055	     -1.30952576	     -0.04638160	     -2.36723399	     -1.30952576	     -0.03226583	     -2.36723399	     -1.07843298	     -0.02621581	     -1.98538437	     -1.00140205	     -0.01613150	     -1.50812102	     -0.92437112	     -0.20165509	    -11.01366470	     -6.85476651	      0.00000000	      0.00000000	    -19.88542701	     10.26261489	     -9.01741361	    -34.81615180	    -38.81774750	    -80.28406738	    121.36811696	     89.99559364	      0.00000000	      0.00000000	     -1.44736400	    -47.81131267	    -11.01423651	     53.52747719	     89.99559364	      0.00000000	      0.00000000
      1.28333333	    -13.64811797	     15.17763704	    -64.44329198	     -0.02954596	      0.94029144	     -0.79404435	     35.72918617	      4.88349226	    -31.35106993	     19.67237930	      0.34334779	    -12.42059097	    -15.60710896	      0.00000000	     19.09881118	     -6.04513107	     15.12121826	     34.80699284	      0.60749663	     15.47096267	    -14.61596017	      0.00000000	     -0.02812999	     -0.73743695	     -1.51501803	     -0.05224021	     -0.98079115	     -1.60970666	     -0.04621477	     -1.79300420	     -1.60970666	     -0.03214977	     -1.79300420	     -1.32564078	     -0.02612151	     -1.50378143	     -1.23095215	     -0.01607348	     -1.14228984	     -1.13626353	     -0.20092973	     -8.34203428	     -8.42607580	      0.00000000	      0.00000000	    -20.43210898	      7.82412069	     -6.85358123	    -32.08123438	    -41.68569581	    -76.88686809	    119.35212870	     89.99559364	      0.00000000	      0.00000000	     -8.76396607	    -46.55241589	    -18.18980370	     54.85681603	     89.99559364	      0.00000000	      0.00000000
      1.30000000	    -12.52768903	     13.91142343	    -65.87362867	     -0.02187855	      0.93918078	     -0.77931047	     33.54685004	      4.84776091	    -30.60717103	     21.51779193	      0.37555632	    -10.24959567	    -15.28315497	      0.00000000	     15.47660352	     -5.77384591	     14.24920167	     34.38279075	      0.60009290	     16.57622756	    -14.73206328	      0.00000000	     -0.02565874	     -0.50648956	     -1.69309392	     -0.04765085	     -0.67363111	     -1.79891229	     -0.04215474	     -1.23147871	     -1.79891229	     -0.02932537	     -1.23147871	     -1.48145718	     -0.02382671	     -1.03283350	     -1.37563881	     -0.01466140	     -0.78455232	     -1.26982044	     -0.18327781	     -5.72951115	     -9.41648046	      0.00000000	      0.00000000	    -21.17991554	      5.00359238	     -4.30678752	    -28.81202153	    -44.54659671	    -73.78615765	    117.09098145	     89.99559364	      0.00000000	      0.00000000	    -14.33295129	    -45.48398167	    -23.54229434	     54.61551936	     89.99559364	      0.00000000	      0.00000000
      1.31666667	    -11.06847257	     12.68365776	    -68.04593476	     -0.01607190	      0.93939747	     -0.76469307	     31.31812269	      4.70118859	    -28.72980981	     23.06274347	      0.40252081	     -8.12076457	    -14.31497353	      0.00000000	     11.80560678	     -5.16260643	     12.93954903	     34.08373386	      0.59487338	     17.29139831	    -14.68458954	      0.00000000	     -0.02728252	     -0.32867265	     -1.50351689	     -0.05066638	     -0.43713462	     -1.59748669	     -0.04482246	     -0.79913468	     -1.59748669	     -0.03118120	     -0.79913468	     -1.31557728	     -0.02533455	     -0.67022927	     -1.22160747	     -0.01558923	     -0.50911393	     -1.12763767	     -0.19487634	     -3.71801075	     -8.36210988	      0.00000000	      0.00000000	    -21.82836965	      3.92295796	     -3.48634812	    -26.88194514	    -46.20573454	    -72.44428133	    114.86237099	     89.99559364	      0.00000000	      0.00000000	    -16.67732331	    -45.71903537	    -25.20945563	     53.17578306	     89.99559364	      0.00000000	      0.00000000
      1.33333333	     -9.26882334	     11.73583640	    -70.26656507	     -0.01184115	      0.94064555	     -0.75077430	     29.45191191	      3.94266865	    -26.56372730	     24.67196781	      0.43060707	     -5.95245596	    -13.04186897	      0.00000000	      8.86551064	     -3.97445263	     11.71723329	     34.34149051	      0.59937208	     17.78942206	    -13.73298575	      0.00000000	     -0.02713689	     -0.22279993	     -0.99326251	     -0.05039591	     -0.29632391	     -1.05534142	     -0.04458319	     -0.54171575	     -1.05534142	     -0.03101475	     -0.54171575	     -0.86910470	     -0.02519931	     -0.45433362	     -0.80702579	     -0.01550602	     -0.34511709	     -0.74494688	     -0.19383608	     -2.52035739	     -5.52422810	      0.00000000	      0.00000000	    -22.81440734	      3.53468350	     -3.94230397	    -27.74895344	    -46.09973044	    -73.77456691	    112.98978431	     89.99559364	      0.00000000	      0.00000000	    -15.99694414	    -47.41441870	    -24.17140354	     51.56368913	     89.99559364	      0.00000000	      0.00000000
